<mxfile host="Electron" modified="2024-05-30T15:32:03.728Z" agent="Mozilla/5.0 (Windows NT 10.0; Win64; x64) AppleWebKit/537.36 (KHTML, like Gecko) draw.io/24.4.8 Chrome/124.0.6367.207 Electron/30.0.6 Safari/537.36" etag="tipUlv6o26AmzujnFIXE" version="24.4.8" type="device">
  <diagram name="Page-1" id="B9c8jXdine5cdyAIaAZK">
    <mxGraphModel dx="778" dy="541" grid="1" gridSize="10" guides="1" tooltips="1" connect="1" arrows="1" fold="1" page="1" pageScale="1" pageWidth="827" pageHeight="1169" math="0" shadow="0">
      <root>
        <mxCell id="0" />
        <mxCell id="1" parent="0" />
        <mxCell id="OorfpBqD8j9SVi1Gm14I-7" value="validate&lt;div&gt;request&lt;/div&gt;" style="edgeStyle=orthogonalEdgeStyle;rounded=0;orthogonalLoop=1;jettySize=auto;html=1;entryX=0;entryY=0.5;entryDx=0;entryDy=0;" edge="1" parent="1" source="OorfpBqD8j9SVi1Gm14I-2" target="OorfpBqD8j9SVi1Gm14I-6">
          <mxGeometry relative="1" as="geometry" />
        </mxCell>
        <mxCell id="OorfpBqD8j9SVi1Gm14I-2" value="Gatekeeper&lt;div&gt;Controller&lt;/div&gt;" style="rounded=1;whiteSpace=wrap;html=1;" vertex="1" parent="1">
          <mxGeometry x="160" y="280" width="120" height="40" as="geometry" />
        </mxCell>
        <mxCell id="OorfpBqD8j9SVi1Gm14I-5" value="HttpPost" style="edgeStyle=orthogonalEdgeStyle;rounded=0;orthogonalLoop=1;jettySize=auto;html=1;entryX=0;entryY=0.5;entryDx=0;entryDy=0;" edge="1" parent="1" source="OorfpBqD8j9SVi1Gm14I-4" target="OorfpBqD8j9SVi1Gm14I-2">
          <mxGeometry relative="1" as="geometry" />
        </mxCell>
        <mxCell id="OorfpBqD8j9SVi1Gm14I-4" value="" style="image;aspect=fixed;perimeter=ellipsePerimeter;html=1;align=center;shadow=0;dashed=0;spacingTop=3;image=img/lib/active_directory/mac_client.svg;" vertex="1" parent="1">
          <mxGeometry x="40" y="280" width="37.6" height="40" as="geometry" />
        </mxCell>
        <mxCell id="OorfpBqD8j9SVi1Gm14I-6" value="IsValid&lt;div&gt;Request&lt;/div&gt;&lt;div&gt;?&lt;/div&gt;" style="rhombus;whiteSpace=wrap;html=1;" vertex="1" parent="1">
          <mxGeometry x="360" y="260" width="80" height="80" as="geometry" />
        </mxCell>
      </root>
    </mxGraphModel>
  </diagram>
</mxfile>
